STARTFONT 2.1
FONT -Monotype-Century Gothic-Bold-R-Normal--36-360-75-75-P-179-iso8859-9
SIZE 36 75 75
FONTBOUNDINGBOX 52 46 -4 -7

STARTPROPERTIES 24
FOUNDRY "Monotype"
FAMILY_NAME "Century Gothic"
WEIGHT_NAME "Bold"
SLANT "R"
SETWIDTH_NAME "Normal"
ADD_STYLE_NAME ""
PIXEL_SIZE 36
POINT_SIZE 360
RESOLUTION_X 75
RESOLUTION_Y 75
SPACING "P"
AVERAGE_WIDTH 179
CHARSET_REGISTRY "iso8859"
CHARSET_ENCODING "9"
FACE_NAME "Century Gothic Bold ISO Latin5"
_DEC_DEVICE_FONTNAMES "PS=centurygothic-b-lat5"
COPYRIGHT "Copyright (c) 1993 Monotype Typography Ltd."
CAP_HEIGHT 33
X_HEIGHT 24
WEIGHT 10
QUAD_WIDTH 25
DEFAULT_CHAR 160
FONT_DESCENT 7
FONT_ASCENT 39
ENDPROPERTIES

CHARS 191

STARTCHAR space
ENCODING 32
SWIDTH 280 0
DWIDTH 11 0
BBX 0 0 0 0
BITMAP
ENDCHAR

STARTCHAR exclam
ENCODING 33
SWIDTH 280 0
DWIDTH 11 0
BBX 6 28 2 0
BITMAP
7C
7C
7C
7C
7C
7C
7C
7C
7C
7C
7C
7C
7C
7C
7C
7C
7C
7C
7C
7C
00
00
78
FC
FC
FC
FC
78
ENDCHAR

STARTCHAR quotedbl
ENCODING 34
SWIDTH 360 0
DWIDTH 14 0
BBX 12 9 1 19
BITMAP
F9F0
F1F0
F1F0
F0F0
F0F0
F0F0
F0E0
F0E0
70E0
ENDCHAR

STARTCHAR numbersign
ENCODING 35
SWIDTH 600 0
DWIDTH 23 0
BBX 21 28 1 0
BITMAP
01E3C0
01E3C0
01C3C0
01C3C0
01C380
03C380
03C780
03C780
7FFFF8
7FFFF8
7FFFF8
7FFFF8
078700
078F00
078F00
FFFFF0
FFFFF0
FFFFF0
FFEFF0
0F1E00
0F1E00
0F1E00
0E1E00
0E1E00
1E1E00
1E1C00
1E3C00
1E3C00
ENDCHAR

STARTCHAR dollar
ENCODING 36
SWIDTH 560 0
DWIDTH 21 0
BBX 18 35 2 -5
BITMAP
00E000
00E000
07F000
0FFC00
1FFF00
3FFF80
7FFF00
7E1E00
7C0400
7C0000
7C0000
3F0000
3FC000
1FF000
0FFC00
03FE00
00FF00
003F80
001FC0
000FC0
0007C0
0007C0
3007C0
7807C0
FE0FC0
FFFF80
7FFF00
3FFF00
0FFE00
03F000
00E000
00E000
00E000
00E000
00E000
ENDCHAR

STARTCHAR percent
ENCODING 37
SWIDTH 860 0
DWIDTH 33 0
BBX 31 30 1 -1
BITMAP
000001F0
1FE00FE0
3FFFFFC0
7FFFFFC0
78FFF780
F0780F00
E0380F00
E0381E00
E0383C00
F0787800
78F07800
7FF0F000
3FE1E000
0F81C000
0003C000
00078000
000F0000
000F07F0
001E0FF8
003C1FFC
00383E3E
00783C1E
00F0380E
01E0380E
01E03C1E
03C03E3E
07801FFC
07000FF8
0F0003F0
1E000000
ENDCHAR

STARTCHAR ampersand
ENCODING 38
SWIDTH 680 0
DWIDTH 26 0
BBX 23 27 2 0
BITMAP
03E000
0FF800
1FFC00
1FFC00
3FFE00
3E3E00
3E3E00
3E3E00
1F7E00
1F7C00
0FF800
07F800
0FF000
1FE000
3FE000
3FF000
7EF840
7CFCE0
F87FF0
F83FF8
F81FF0
F83FC0
FFFFE0
7FFFF0
3FFDF0
1FF1F8
0780FE
ENDCHAR

STARTCHAR quoteright
ENCODING 39
SWIDTH 280 0
DWIDTH 11 0
BBX 5 10 3 18
BITMAP
F8
F8
F8
F8
F8
38
30
70
E0
20
ENDCHAR

STARTCHAR parenleft
ENCODING 40
SWIDTH 380 0
DWIDTH 14 0
BBX 12 37 2 -7
BITMAP
07F0
0FE0
0FC0
1F80
1F80
3F00
3F00
7E00
7E00
7C00
7C00
FC00
FC00
F800
F800
F800
F800
F800
F800
F800
F800
F800
F800
FC00
FC00
7C00
7C00
7C00
7E00
3E00
3F00
3F00
1F80
1F80
0FC0
0FE0
07F0
ENDCHAR

STARTCHAR parenright
ENCODING 41
SWIDTH 380 0
DWIDTH 14 0
BBX 12 37 1 -7
BITMAP
FE00
7F00
3F00
1F80
1F80
0FC0
07C0
07E0
07E0
03E0
03E0
03F0
03F0
01F0
01F0
01F0
01F0
01F0
01F0
01F0
01F0
01F0
01F0
01F0
03F0
03F0
03E0
03E0
07E0
07E0
07C0
0FC0
1F80
1F80
3F00
7F00
FE00
ENDCHAR

STARTCHAR asterisk
ENCODING 42
SWIDTH 440 0
DWIDTH 17 0
BBX 15 14 1 14
BITMAP
07C0
0780
2388
739C
7BBC
FD7E
1BB0
07C0
7DF8
FF7E
7BBC
3398
2388
07C0
ENDCHAR

STARTCHAR plus
ENCODING 43
SWIDTH 600 0
DWIDTH 23 0
BBX 19 19 2 4
BITMAP
01F000
01F000
01F000
01F000
01F000
01F000
01F000
FFFFE0
FFFFE0
FFFFE0
FFFFE0
FFFFE0
01F000
01F000
01F000
01F000
01F000
01F000
01F000
ENDCHAR

STARTCHAR comma
ENCODING 44
SWIDTH 280 0
DWIDTH 11 0
BBX 7 9 2 -4
BITMAP
10
3E
3C
7C
78
70
F0
E0
E0
ENDCHAR

STARTCHAR minus
ENCODING 45
SWIDTH 600 0
DWIDTH 23 0
BBX 19 5 2 11
BITMAP
FFFFE0
FFFFE0
FFFFE0
FFFFE0
FFFFE0
ENDCHAR

STARTCHAR period
ENCODING 46
SWIDTH 280 0
DWIDTH 11 0
BBX 6 6 2 0
BITMAP
78
7C
FC
FC
78
30
ENDCHAR

STARTCHAR slash
ENCODING 47
SWIDTH 460 0
DWIDTH 17 0
BBX 16 33 1 -5
BITMAP
000F
000E
001E
001C
003C
003C
0038
0078
0078
0070
00F0
00E0
01E0
01E0
01C0
03C0
03C0
0380
0780
0700
0F00
0F00
0E00
1E00
1E00
1C00
3C00
3800
7800
7800
7000
F000
F000
ENDCHAR

STARTCHAR zero
ENCODING 48
SWIDTH 560 0
DWIDTH 21 0
BBX 19 28 1 0
BITMAP
03F800
0FFE00
1FFF00
3FFF80
3FFF80
7E0FC0
7E07C0
7C07C0
FC07E0
F803E0
F803E0
F803E0
F803E0
F803E0
F803E0
F803E0
F803E0
F803E0
FC03E0
FC07E0
7C07C0
7E0FC0
7F0FC0
3FFF80
3FFF80
1FFF00
07FE00
01F000
ENDCHAR

STARTCHAR one
ENCODING 49
SWIDTH 560 0
DWIDTH 21 0
BBX 11 28 3 0
BITMAP
1FE0
3FE0
3FE0
7FE0
FFE0
03E0
03E0
03E0
03E0
03E0
03E0
03E0
03E0
03E0
03E0
03E0
03E0
03E0
03E0
03E0
03E0
03E0
03E0
03E0
03E0
03E0
03E0
03E0
ENDCHAR

STARTCHAR two
ENCODING 50
SWIDTH 560 0
DWIDTH 21 0
BBX 19 28 0 0
BITMAP
01F800
07FE00
0FFF80
1FFFC0
3FFFC0
3F0FE0
3E07E0
7E03E0
7C03E0
0003E0
0003E0
0007E0
0007C0
000FC0
001F80
003F00
007F00
00FE00
01FC00
03F800
07F000
0FE000
1FC000
3FFFE0
7FFFE0
FFFFE0
FFFFE0
FFFFE0
ENDCHAR

STARTCHAR three
ENCODING 51
SWIDTH 560 0
DWIDTH 21 0
BBX 19 28 1 0
BITMAP
03F000
0FFC00
1FFE00
3FFF00
3FFF80
7E1F80
7C0F80
000F80
000F80
001F80
007F00
00FE00
00F800
00FE00
00FF80
001FC0
0007C0
0007E0
0003E0
FC03E0
FC03E0
7C07E0
7E0FC0
7FFFC0
3FFF80
1FFF00
0FFE00
01F000
ENDCHAR

STARTCHAR four
ENCODING 52
SWIDTH 560 0
DWIDTH 21 0
BBX 19 28 1 0
BITMAP
000F80
001F80
003F80
003F80
007F80
00FF80
01FF80
01FF80
03F780
07EF80
07CF80
0FCF80
1F8F80
1F0F80
3F0F80
7E0F80
7C0F80
FFFFE0
FFFFE0
FFFFE0
FFFFE0
FFFFE0
000F80
000F80
000F80
000F80
000F80
000F80
ENDCHAR

STARTCHAR five
ENCODING 53
SWIDTH 560 0
DWIDTH 21 0
BBX 19 28 0 0
BITMAP
03FFE0
03FFE0
07FFE0
07FFE0
07FFE0
07C000
0F8000
0F8000
0F8000
0FF800
0FFE00
1FFF00
1FFF80
1FFFC0
1F0FC0
0207E0
0003E0
0003E0
0003E0
0003E0
FC03E0
7E07E0
7F0FC0
3FFFC0
3FFF80
1FFF00
07FE00
01F000
ENDCHAR

STARTCHAR six
ENCODING 54
SWIDTH 560 0
DWIDTH 21 0
BBX 17 28 2 0
BITMAP
004000
00F000
00FC00
01F800
01F000
03F000
03E000
07E000
07C000
0FC000
0F8000
1FE000
1FF800
3FFE00
7FFE00
7FFF00
7E3F80
FC1F80
F80F80
F80F80
F80F80
FC1F80
7E3F80
7FFF00
3FFE00
1FFE00
0FF800
03E000
ENDCHAR

STARTCHAR seven
ENCODING 55
SWIDTH 560 0
DWIDTH 21 0
BBX 18 28 2 0
BITMAP
FFFFC0
FFFFC0
FFFFC0
FFFFC0
FFEF80
001F80
001F00
003F00
003E00
007E00
007C00
00FC00
00F800
01F800
01F000
03F000
03E000
07E000
07C000
0FC000
0FC000
0F8000
1F8000
1F0000
3F0000
7E0000
1E0000
040000
ENDCHAR

STARTCHAR eight
ENCODING 56
SWIDTH 560 0
DWIDTH 21 0
BBX 18 28 2 0
BITMAP
03F000
0FFC00
1FFE00
3FFF00
3FFF00
7E1F80
7C0F80
7C0F80
7C0F80
7C0F80
3E1F00
3FFF00
0FFE00
1FFE00
3FFF00
7FFF80
7E0FC0
FC0FC0
F807C0
F807C0
F807C0
FC07C0
FE1FC0
7FFF80
7FFF80
3FFF00
1FFE00
07F000
ENDCHAR

STARTCHAR nine
ENCODING 57
SWIDTH 560 0
DWIDTH 21 0
BBX 17 28 2 0
BITMAP
03E000
0FF800
3FFE00
3FFE00
7FFF00
FE1F80
FC1F80
F80F80
F80F80
F80F80
FC1F80
7E3F00
7FFF00
3FFF00
1FFE00
0FFC00
01FC00
00F800
01F800
01F000
03F000
03E000
07E000
07C000
0FC000
0F8000
078000
010000
ENDCHAR

STARTCHAR colon
ENCODING 58
SWIDTH 280 0
DWIDTH 11 0
BBX 6 21 2 0
BITMAP
78
FC
FC
FC
78
30
00
00
00
00
00
00
00
00
00
30
7C
FC
FC
78
30
ENDCHAR

STARTCHAR semicolon
ENCODING 59
SWIDTH 280 0
DWIDTH 11 0
BBX 7 25 1 -4
BITMAP
3C
7E
7E
7E
3E
1C
00
00
00
00
00
00
00
00
00
00
18
1E
3E
3C
38
78
70
F0
60
ENDCHAR

STARTCHAR less
ENCODING 60
SWIDTH 600 0
DWIDTH 23 0
BBX 19 23 2 2
BITMAP
000060
0001E0
0007E0
001FE0
007FE0
00FF80
03FE00
0FF800
3FE000
FF8000
FA0000
FC0000
FF0000
FFC000
3FF000
0FFC00
03FE00
00FF80
003FE0
000FE0
0003E0
0000E0
000020
ENDCHAR

STARTCHAR equal
ENCODING 61
SWIDTH 600 0
DWIDTH 23 0
BBX 19 13 2 7
BITMAP
FFFFE0
FFFFE0
FFFFE0
FFFFE0
FFFFE0
000000
000000
000000
FFFFE0
FFFFE0
FFFFE0
FFFFE0
FFFFE0
ENDCHAR

STARTCHAR greater
ENCODING 62
SWIDTH 600 0
DWIDTH 23 0
BBX 19 23 2 2
BITMAP
800000
E00000
F80000
FE0000
FF8000
3FE000
0FF800
03FE00
00FF80
003FE0
000FE0
0007E0
001FE0
007FE0
01FF80
07FE00
1FF800
7FE000
FF8000
FE0000
F80000
E00000
800000
ENDCHAR

STARTCHAR question
ENCODING 63
SWIDTH 560 0
DWIDTH 21 0
BBX 17 29 2 0
BITMAP
03E000
1FFC00
3FFE00
7FFF00
FFFF00
FC1F80
F80F80
F80F80
000F80
001F80
003F00
007F00
00FE00
01FC00
01F800
03F000
03E000
03E000
07E000
07C000
07C000
000000
000000
03C000
07E000
07E000
07E000
07E000
03C000
ENDCHAR

STARTCHAR at
ENCODING 64
SWIDTH 740 0
DWIDTH 28 0
BBX 28 29 0 0
BITMAP
001FC000
00FFF800
03FFFE00
07C01F00
0F000780
1E0003C0
1C0001C0
381F1CE0
703FDCE0
70FFFC70
70FFFC70
E1F8FC70
E1F07C70
E3E07870
E3E07870
E3E07860
E3E07860
E3E0F8C0
71F1F8C0
71FFF180
70FFFF00
387F7E00
1C3C7800
1E0003C0
0F800780
07E01F00
01FFFE00
007FF800
001FC000
ENDCHAR

STARTCHAR A
ENCODING 65
SWIDTH 740 0
DWIDTH 28 0
BBX 26 28 1 0
BITMAP
003F0000
003F0000
003F8000
007F8000
007F8000
00FFC000
00FFC000
00FBE000
01FBE000
01F3E000
03F3F000
03F1F000
03E1F000
07E1F800
07C0F800
07C0FC00
0FC07C00
0FFFFC00
1FFFFE00
1FFFFE00
1FFFFE00
3FFFFF00
3E001F00
3E001F80
7E000F80
7C000F80
FC000FC0
F80007C0
ENDCHAR

STARTCHAR B
ENCODING 66
SWIDTH 580 0
DWIDTH 22 0
BBX 17 28 3 0
BITMAP
FFC000
FFF000
FFF800
FFFC00
FFFC00
F87E00
F83E00
F83E00
F83E00
F83E00
F87C00
FFF800
FFF800
FFFC00
FFFE00
FFFF00
F83F00
F81F80
F80F80
F80F80
F80F80
F81F80
F83F80
FFFF00
FFFF00
FFFE00
FFFC00
FFF000
ENDCHAR

STARTCHAR C
ENCODING 67
SWIDTH 780 0
DWIDTH 30 0
BBX 26 28 2 0
BITMAP
003FC000
00FFF800
03FFFE00
07FFFF80
0FFFFFC0
1FE03FC0
3F800F80
7F000700
7E000200
7C000000
FC000000
F8000000
F8000000
F8000000
F8000000
F8000000
F8000000
FC000000
7C000000
7E000200
7F000700
3F800F80
1FE03FC0
0FFFFFC0
07FFFF00
03FFFE00
00FFF800
003FE000
ENDCHAR

STARTCHAR D
ENCODING 68
SWIDTH 700 0
DWIDTH 27 0
BBX 21 28 3 0
BITMAP
FFF000
FFFE00
FFFF00
FFFF80
FFFFC0
F83FE0
F807E0
F803F0
F801F0
F801F8
F801F8
F800F8
F800F8
F800F8
F800F8
F800F8
F800F8
F800F8
F801F8
F801F0
F803F0
F807F0
F81FE0
FFFFC0
FFFFC0
FFFF80
FFFE00
FFF800
ENDCHAR

STARTCHAR E
ENCODING 69
SWIDTH 520 0
DWIDTH 20 0
BBX 15 28 3 0
BITMAP
FFFE
FFFE
FFFE
FFFE
FFFE
F800
F800
F800
F800
F800
FFFE
FFFE
FFFE
FFFE
FFFE
F800
F800
F800
F800
F800
F800
F800
F800
FFFE
FFFE
FFFE
FFFE
FFFE
ENDCHAR

STARTCHAR F
ENCODING 70
SWIDTH 480 0
DWIDTH 18 0
BBX 14 28 3 0
BITMAP
FFFC
FFFC
FFFC
FFFC
FFFC
F800
F800
F800
F800
F800
FFFC
FFFC
FFFC
FFFC
FFFC
F800
F800
F800
F800
F800
F800
F800
F800
F800
F800
F800
F800
F800
ENDCHAR

STARTCHAR G
ENCODING 71
SWIDTH 840 0
DWIDTH 32 0
BBX 28 28 2 0
BITMAP
003FE000
00FFF800
03FFFE00
07FFFF00
0FFFFFC0
1FE03FC0
3F800F80
3F000700
7E000200
7C000000
FC000000
F8000000
F8000000
F8000000
F803FFF0
F803FFF0
F803FFF0
FC03FFF0
7C03FFE0
7E0003E0
7F0007E0
3F800FC0
1FE03FC0
0FFFFF80
07FFFF00
03FFFE00
00FFF800
001FC000
ENDCHAR

STARTCHAR H
ENCODING 72
SWIDTH 680 0
DWIDTH 26 0
BBX 19 28 3 0
BITMAP
F803E0
F803E0
F803E0
F803E0
F803E0
F803E0
F803E0
F803E0
F803E0
F803E0
F803E0
FFFFE0
FFFFE0
FFFFE0
FFFFE0
FFFFE0
F803E0
F803E0
F803E0
F803E0
F803E0
F803E0
F803E0
F803E0
F803E0
F803E0
F803E0
F803E0
ENDCHAR

STARTCHAR I
ENCODING 73
SWIDTH 280 0
DWIDTH 11 0
BBX 5 28 3 0
BITMAP
F8
F8
F8
F8
F8
F8
F8
F8
F8
F8
F8
F8
F8
F8
F8
F8
F8
F8
F8
F8
F8
F8
F8
F8
F8
F8
F8
F8
ENDCHAR

STARTCHAR J
ENCODING 74
SWIDTH 480 0
DWIDTH 18 0
BBX 14 28 1 0
BITMAP
007C
007C
007C
007C
007C
007C
007C
007C
007C
007C
007C
007C
007C
007C
007C
007C
007C
007C
007C
007C
007C
307C
7CFC
FFFC
FFF8
7FF8
3FF0
0FC0
ENDCHAR

STARTCHAR K
ENCODING 75
SWIDTH 620 0
DWIDTH 24 0
BBX 20 28 3 0
BITMAP
F80FE0
F81FC0
F81F80
F83F00
F87E00
F8FE00
F8FC00
F9F800
FBF000
FBF000
FFE000
FFC000
FF8000
FFC000
FFE000
FFE000
FBF000
FBF800
F9F800
F8FC00
F87E00
F87E00
F83F00
F81F80
F81F80
F80FC0
F807E0
F807F0
ENDCHAR

STARTCHAR L
ENCODING 76
SWIDTH 440 0
DWIDTH 17 0
BBX 13 28 3 0
BITMAP
F800
F800
F800
F800
F800
F800
F800
F800
F800
F800
F800
F800
F800
F800
F800
F800
F800
F800
F800
F800
F800
F800
F800
FFF8
FFF8
FFF8
FFF8
FFF8
ENDCHAR

STARTCHAR M
ENCODING 77
SWIDTH 900 0
DWIDTH 34 0
BBX 32 28 1 0
BITMAP
07C003F0
07C003F0
0FE003F0
0FE007F0
0FE007F0
0FF007F0
0FF00FF8
1FF00FF8
1FF80FF8
1FF81FF8
1F781F78
1F7C1F78
1F7C3E7C
3F7C3E7C
3E7E3E7C
3E3E7C7C
3E3E7C7C
3E3F7C7C
3E1FF83E
7E1FF83E
7C1FF83E
7C0FF83E
7C0FF03E
7C0FF03E
7C07F01F
F807E01F
F807E01F
F803E01F
ENDCHAR

STARTCHAR N
ENCODING 78
SWIDTH 740 0
DWIDTH 28 0
BBX 22 28 3 0
BITMAP
F8007C
FC007C
FE007C
FE007C
FF007C
FF807C
FF807C
FFC07C
FFC07C
FFE07C
FBF07C
FBF07C
F9F87C
F8FC7C
F8FC7C
F87E7C
F83F7C
F83F7C
F81FFC
F80FFC
F80FFC
F807FC
F803FC
F803FC
F801FC
F800FC
F800FC
F8007C
ENDCHAR

STARTCHAR O
ENCODING 79
SWIDTH 840 0
DWIDTH 32 0
BBX 28 28 2 0
BITMAP
003FC000
00FFF000
03FFFC00
07FFFE00
0FFFFF00
1FE07F80
3F801FC0
7F000FE0
7E0007E0
7C0003E0
FC0003F0
F80001F0
F80001F0
F80001F0
F80001F0
F80001F0
FC0001F0
FC0003F0
7C0003E0
7E0007E0
3F000FC0
3F801FC0
1FE07F80
0FFFFF00
07FFFE00
03FFFC00
00FFF000
001FC000
ENDCHAR

STARTCHAR P
ENCODING 80
SWIDTH 560 0
DWIDTH 21 0
BBX 16 28 3 0
BITMAP
FFE0
FFF8
FFFC
FFFE
FFFE
F87F
F81F
F81F
F81F
F81F
F87F
FFFE
FFFE
FFFC
FFF8
FFE0
F800
F800
F800
F800
F800
F800
F800
F800
F800
F800
F800
F800
ENDCHAR

STARTCHAR Q
ENCODING 81
SWIDTH 840 0
DWIDTH 32 0
BBX 29 29 2 -1
BITMAP
003FC000
00FFF000
03FFFC00
07FFFE00
0FFFFF00
1FE07F80
3F801FC0
7F000FE0
7E0007E0
7C0003E0
FC0003F0
F80001F0
F80001F0
F80001F0
F80001F0
F80001F0
FC07E1F0
FC03F3F0
7C01FBE0
7E01FFE0
3F00FFE0
3F803FC0
1FE07F80
0FFFFF80
07FFFF80
03FFFFC0
00FFF7E0
001FC3F0
000003F8
ENDCHAR

STARTCHAR R
ENCODING 82
SWIDTH 580 0
DWIDTH 22 0
BBX 17 28 4 0
BITMAP
FFE000
FFF800
FFFC00
FFFE00
FFFE00
F87F00
F81F00
F81F00
F81F00
F81F00
F87F00
FFFE00
FFFE00
FFFC00
FFF800
FFE000
FBE000
FBF000
F9F000
F9F800
F8F800
F8FC00
F87E00
F87E00
F83F00
F83F00
F81F80
F81F80
ENDCHAR

STARTCHAR S
ENCODING 83
SWIDTH 520 0
DWIDTH 20 0
BBX 17 28 1 0
BITMAP
03F000
0FFC00
1FFE00
3FFF80
7FFF00
7E3E00
7C0C00
7C0400
7E0000
3F0000
3F8000
1FE000
0FF000
07F800
03FC00
00FE00
007F00
003F80
001F80
000F80
380F80
780F80
FE1F80
7FFF00
7FFF00
3FFE00
1FFC00
07F000
ENDCHAR

STARTCHAR T
ENCODING 84
SWIDTH 420 0
DWIDTH 16 0
BBX 15 28 0 0
BITMAP
FFFE
FFFE
FFFE
FFFE
FFFE
07C0
07C0
07C0
07C0
07C0
07C0
07C0
07C0
07C0
07C0
07C0
07C0
07C0
07C0
07C0
07C0
07C0
07C0
07C0
07C0
07C0
07C0
07C0
ENDCHAR

STARTCHAR U
ENCODING 85
SWIDTH 640 0
DWIDTH 24 0
BBX 18 28 3 0
BITMAP
F807C0
F807C0
F807C0
F807C0
F807C0
F807C0
F807C0
F807C0
F807C0
F807C0
F807C0
F807C0
F807C0
F807C0
F807C0
F807C0
F807C0
F807C0
F807C0
F807C0
F807C0
FC0FC0
7E1F80
7FFF80
3FFF00
1FFE00
0FFC00
03F000
ENDCHAR

STARTCHAR V
ENCODING 86
SWIDTH 700 0
DWIDTH 27 0
BBX 25 28 1 0
BITMAP
FC001F80
FC001F00
7C003F00
7E003E00
3E003E00
3E007E00
3F007C00
1F007C00
1F00FC00
1F80F800
0F80F800
0F81F800
0FC1F000
07C3F000
07C3E000
07E3E000
03E7E000
03E7C000
03F7C000
01F7C000
01FF8000
01FF8000
00FF8000
00FF0000
007F0000
007F0000
007E0000
003E0000
ENDCHAR

STARTCHAR W
ENCODING 87
SWIDTH 900 0
DWIDTH 34 0
BBX 32 28 1 0
BITMAP
F803C01F
F803E01F
7C07E01F
7C07E03F
7C07F03E
7C0FF03E
7E0FF03E
3E0FF07E
3E0FF87C
3E1FF87C
3E1F787C
1F1F7C7C
1F1E7CFC
1F3E7CF8
1F3E7CF8
1FBE3EF8
0FBC3EF8
0FBC3EF0
0FFC3FF0
0FF81FF0
07F81FF0
07F81FF0
07F80FE0
07F00FE0
03F00FE0
03F00FE0
03F007C0
03E007C0
ENDCHAR

STARTCHAR X
ENCODING 88
SWIDTH 680 0
DWIDTH 26 0
BBX 24 28 1 0
BITMAP
FC007F
7E007E
3F00FC
1F01F8
1F81F8
0FC3F0
0FC3E0
07E7E0
03F7C0
03FF80
01FF80
00FF00
00FF00
007E00
00FF00
00FF00
01FF80
03FF80
03F7C0
07E7E0
0FC7E0
0FC3F0
1F81F8
1F01F8
3F00FC
7E007E
7E007E
FC003F
ENDCHAR

STARTCHAR Y
ENCODING 89
SWIDTH 620 0
DWIDTH 24 0
BBX 21 28 1 0
BITMAP
FC01F8
7C01F0
7E03F0
3E03E0
3F07E0
1F07C0
1F8FC0
0F8F80
0FDF80
07DF00
07FF00
03FE00
03FE00
01FC00
01FC00
00F800
00F800
00F800
00F800
00F800
00F800
00F800
00F800
00F800
00F800
00F800
00F800
00F800
ENDCHAR

STARTCHAR Z
ENCODING 90
SWIDTH 500 0
DWIDTH 19 0
BBX 17 28 1 0
BITMAP
7FFF80
7FFF80
7FFF00
7FFF00
7FBE00
007E00
007C00
007C00
00FC00
00F800
01F800
01F000
03F000
03E000
03E000
07E000
07C000
0FC000
0F8000
1F8000
1F0000
1F0000
3E0000
3FFF80
7FFF80
7FFF80
FFFF80
FFFF80
ENDCHAR

STARTCHAR bracketleft
ENCODING 91
SWIDTH 320 0
DWIDTH 12 0
BBX 8 35 3 -7
BITMAP
FF
FF
FF
FF
FF
F8
F8
F8
F8
F8
F8
F8
F8
F8
F8
F8
F8
F8
F8
F8
F8
F8
F8
F8
F8
F8
F8
F8
F8
F8
FF
FF
FF
FF
FF
ENDCHAR

STARTCHAR backslash
ENCODING 92
SWIDTH 640 0
DWIDTH 24 0
BBX 16 33 4 -5
BITMAP
F000
7000
7800
7800
3800
3C00
1C00
1E00
1E00
0E00
0F00
0F00
0700
0780
0380
03C0
03C0
01C0
01E0
01E0
00E0
00F0
0070
0078
0078
0038
003C
003C
001C
001E
000E
000F
000F
ENDCHAR

STARTCHAR bracketright
ENCODING 93
SWIDTH 320 0
DWIDTH 12 0
BBX 8 35 1 -7
BITMAP
FF
FF
FF
FF
FF
1F
1F
1F
1F
1F
1F
1F
1F
1F
1F
1F
1F
1F
1F
1F
1F
1F
1F
1F
1F
1F
1F
1F
1F
1F
FF
FF
FF
FF
FF
ENDCHAR

STARTCHAR asciicircum
ENCODING 94
SWIDTH 600 0
DWIDTH 23 0
BBX 19 21 2 7
BITMAP
01F000
01F000
03F000
03F800
03F800
07F800
07FC00
07BC00
0FBE00
0F3E00
0F1E00
1F1F00
1E1F00
3E0F00
3E0F80
3C0F80
7C0780
7C07C0
7803C0
F803C0
F803E0
ENDCHAR

STARTCHAR underscore
ENCODING 95
SWIDTH 500 0
DWIDTH 19 0
BBX 19 2 0 -5
BITMAP
FFFFE0
FFFFE0
ENDCHAR

STARTCHAR quoteleft
ENCODING 96
SWIDTH 280 0
DWIDTH 11 0
BBX 5 10 3 18
BITMAP
20
38
70
70
60
F8
F8
F8
F8
F8
ENDCHAR

STARTCHAR a
ENCODING 97
SWIDTH 660 0
DWIDTH 25 0
BBX 21 21 2 0
BITMAP
01F0F8
07FCF8
1FFF78
3FFFF8
3FFFF8
7F07F8
7E01F8
FC01F8
F800F8
F800F8
F800F8
F800F8
F800F8
FC01F8
7E01F8
7F07F8
3FFFF8
1FFFF8
0FFF78
07FCF8
01F0F8
ENDCHAR

STARTCHAR b
ENCODING 98
SWIDTH 660 0
DWIDTH 25 0
BBX 21 28 3 0
BITMAP
F80000
F80000
F80000
F80000
F80000
F80000
F80000
F87C00
F9FF00
FFFFC0
FFFFE0
FFFFE0
FF07F0
FC01F0
FC01F8
F800F8
F800F8
F800F8
F800F8
F800F8
FC01F8
FC03F0
FF07F0
FFFFE0
FFFFE0
FBFF80
F9FF00
F87C00
ENDCHAR

STARTCHAR c
ENCODING 99
SWIDTH 640 0
DWIDTH 24 0
BBX 21 21 2 0
BITMAP
00FE00
03FF80
0FFFE0
1FFFF0
3FFFF8
7F01E0
7E0080
FC0000
F80000
F80000
F80000
F80000
F80000
FC0000
7E0080
7F03E0
3FFFF0
1FFFF0
0FFFE0
03FF80
007C00
ENDCHAR

STARTCHAR d
ENCODING 100
SWIDTH 660 0
DWIDTH 25 0
BBX 21 28 2 0
BITMAP
0000F8
0000F8
0000F8
0000F8
0000F8
0000F8
0000F8
01F0F8
07FCF8
1FFF78
3FFFF8
3FFFF8
7F03F8
7E01F8
FC00F8
F800F8
F800F8
F800F8
F800F8
F800F8
FC01F8
7E01F8
7F07F8
3FFFF8
1FFFF8
0FFF78
07FCF8
01F0F8
ENDCHAR

STARTCHAR e
ENCODING 101
SWIDTH 640 0
DWIDTH 24 0
BBX 21 21 2 0
BITMAP
01FC00
07FF00
1FFFC0
3FFFE0
3F87E0
7E03F0
7C01F0
F800F8
FFFFF8
FFFFF8
FFFFF8
FFFFF8
F80000
F80000
7C0000
7E0380
3F8FF0
3FFFE0
1FFFC0
07FF80
03FE00
ENDCHAR

STARTCHAR f
ENCODING 102
SWIDTH 280 0
DWIDTH 11 0
BBX 10 29 0 0
BITMAP
0FC0
1FC0
3FC0
3FC0
3E00
3E00
3E00
3E00
FFC0
FFC0
FFC0
FFC0
3E00
3E00
3E00
3E00
3E00
3E00
3E00
3E00
3E00
3E00
3E00
3E00
3E00
3E00
3E00
3E00
3E00
ENDCHAR

STARTCHAR g
ENCODING 103
SWIDTH 660 0
DWIDTH 25 0
BBX 21 28 2 -7
BITMAP
01F0F8
07FCF8
1FFEF8
3FFFF8
3FFFF8
7F07F8
7E01F8
FC01F8
F800F8
F800F8
F800F8
F800F8
F800F8
FC01F8
7E01F8
7F07F8
3FFFF8
1FFFF8
0FFF78
07FCF8
0060F8
0001F8
FC03F0
7FFFF0
3FFFE0
1FFFC0
0FFF00
01FC00
ENDCHAR

STARTCHAR h
ENCODING 104
SWIDTH 600 0
DWIDTH 23 0
BBX 18 28 3 0
BITMAP
F80000
F80000
F80000
F80000
F80000
F80000
F80000
F87800
F9FE00
FBFF00
FFFF80
FFFFC0
FE0FC0
FC0FC0
FC07C0
F807C0
F807C0
F807C0
F807C0
F807C0
F807C0
F807C0
F807C0
F807C0
F807C0
F807C0
F807C0
F807C0
ENDCHAR

STARTCHAR i
ENCODING 105
SWIDTH 240 0
DWIDTH 9 0
BBX 6 29 1 0
BITMAP
30
FC
FC
FC
FC
78
30
00
7C
7C
7C
7C
7C
7C
7C
7C
7C
7C
7C
7C
7C
7C
7C
7C
7C
7C
7C
7C
7C
ENDCHAR

STARTCHAR j
ENCODING 106
SWIDTH 260 0
DWIDTH 10 0
BBX 9 36 -1 -7
BITMAP
0E00
1F80
1F80
1F80
1F80
0F00
0600
0000
0F80
0F80
0F80
0F80
0F80
0F80
0F80
0F80
0F80
0F80
0F80
0F80
0F80
0F80
0F80
0F80
0F80
0F80
0F80
0F80
0F80
0F80
0F80
9F80
FF80
FF00
FF00
7C00
ENDCHAR

STARTCHAR k
ENCODING 107
SWIDTH 580 0
DWIDTH 22 0
BBX 20 28 3 0
BITMAP
F80000
F80000
F80000
F80000
F80000
F80000
F80000
F80FE0
F81FC0
F83F80
F83F00
F87E00
F8FC00
F9F800
FBF000
FBF000
FFC000
FFE000
FBF000
FBF000
F9F800
F8FC00
F87E00
F83F00
F81F80
F81FC0
F80FE0
F807F0
ENDCHAR

STARTCHAR l
ENCODING 108
SWIDTH 240 0
DWIDTH 9 0
BBX 5 28 2 0
BITMAP
F8
F8
F8
F8
F8
F8
F8
F8
F8
F8
F8
F8
F8
F8
F8
F8
F8
F8
F8
F8
F8
F8
F8
F8
F8
F8
F8
F8
ENDCHAR

STARTCHAR m
ENCODING 109
SWIDTH 940 0
DWIDTH 36 0
BBX 31 21 3 0
BITMAP
F87803C0
F9FF0FF8
FBFF3FFC
FFFFBFFC
FFFFFFFE
FE1FF07E
FC0FE07E
FC07E03E
F807C03E
F807C03E
F807C03E
F807C03E
F807C03E
F807C03E
F807C03E
F807C03E
F807C03E
F807C03E
F807C03E
F807C03E
F807C03E
ENDCHAR

STARTCHAR n
ENCODING 110
SWIDTH 600 0
DWIDTH 23 0
BBX 18 21 3 0
BITMAP
F87800
F9FE00
FBFF80
FFFF80
FFFFC0
FE0FC0
FC0FC0
FC07C0
F807C0
F807C0
F807C0
F807C0
F807C0
F807C0
F807C0
F807C0
F807C0
F807C0
F807C0
F807C0
F807C0
ENDCHAR

STARTCHAR o
ENCODING 111
SWIDTH 640 0
DWIDTH 24 0
BBX 21 21 2 0
BITMAP
01F800
07FF00
0FFF80
1FFFC0
3FFFE0
7F07F0
7E01F0
FC01F8
F800F8
F800F8
F800F8
F800F8
F800F8
FC01F8
7E03F0
7F07F0
3FFFE0
1FFFC0
0FFF80
07FF00
00F800
ENDCHAR

STARTCHAR p
ENCODING 112
SWIDTH 660 0
DWIDTH 25 0
BBX 21 28 3 -7
BITMAP
F87C00
F9FF00
FFFFC0
FFFFE0
FFFFE0
FF07F0
FC01F0
FC01F8
F800F8
F800F8
F800F8
F800F8
F800F8
FC01F8
FC03F0
FF07F0
FFFFE0
FFFFE0
FBFFC0
F9FF00
F87C00
F80000
F80000
F80000
F80000
F80000
F80000
F80000
ENDCHAR

STARTCHAR q
ENCODING 113
SWIDTH 660 0
DWIDTH 25 0
BBX 21 28 2 -7
BITMAP
01F0F8
07FCF8
1FFF78
3FFFF8
3FFFF8
7F03F8
7E01F8
FC00F8
F800F8
F800F8
F800F8
F800F8
F800F8
FC01F8
7E01F8
7F07F8
3FFFF8
3FFFF8
0FFF78
07FCF8
01F0F8
0000F8
0000F8
0000F8
0000F8
0000F8
0000F8
0000F8
ENDCHAR

STARTCHAR r
ENCODING 114
SWIDTH 320 0
DWIDTH 12 0
BBX 11 21 1 0
BITMAP
F3E0
F7C0
F7C0
FFC0
FE40
FC00
FC00
F800
F800
F800
F800
F800
F800
F800
F800
F800
F800
F800
F800
F800
F800
ENDCHAR

STARTCHAR s
ENCODING 115
SWIDTH 440 0
DWIDTH 17 0
BBX 15 21 0 0
BITMAP
07C0
1FF0
3FFC
3FFE
7FFC
7C38
7C10
7E00
3F80
3FE0
0FF8
07FC
01FC
007E
103E
383E
3E7E
FFFC
7FFC
3FF8
0FE0
ENDCHAR

STARTCHAR t
ENCODING 116
SWIDTH 300 0
DWIDTH 11 0
BBX 11 29 0 0
BITMAP
1F00
1F00
1F00
1F00
1F00
1F00
1F00
1F00
FFE0
FFE0
FFE0
FFE0
1F00
1F00
1F00
1F00
1F00
1F00
1F00
1F00
1F00
1F00
1F00
1F00
1F00
1F00
1F00
1F00
1F00
ENDCHAR

STARTCHAR u
ENCODING 117
SWIDTH 600 0
DWIDTH 23 0
BBX 18 21 2 0
BITMAP
F807C0
F807C0
F807C0
F807C0
F807C0
F807C0
F807C0
F807C0
F807C0
F807C0
F807C0
F807C0
F807C0
FC07C0
FC0FC0
7E1F80
7FFF80
3FFF00
1FFE00
0FFC00
03F000
ENDCHAR

STARTCHAR v
ENCODING 118
SWIDTH 560 0
DWIDTH 21 0
BBX 21 21 0 0
BITMAP
FC00F8
7C01F0
7E01F0
3E03E0
3E03E0
1F07E0
1F07C0
1F87C0
0F8F80
0F8F80
07DF80
07DF00
03FF00
03FE00
03FE00
01FC00
01FC00
00FC00
00F800
00F800
007000
ENDCHAR

STARTCHAR w
ENCODING 119
SWIDTH 800 0
DWIDTH 30 0
BBX 30 21 0 0
BITMAP
F803807C
7C07807C
7C07C0F8
3E0FC0F8
3E0FC0F8
3E0FE1F0
1F1FE1F0
1F1FE3E0
1F1FF3E0
0FBEF3E0
0FBEFBC0
0FFCFBC0
07FCFFC0
07FC7F80
07F87F80
03F83F80
03F03F00
03F03F00
01F01F00
01E01E00
00E01E00
ENDCHAR

STARTCHAR x
ENCODING 120
SWIDTH 560 0
DWIDTH 21 0
BBX 21 21 0 0
BITMAP
7E03F0
3F03E0
3F07E0
1F8FC0
0FCF80
07DF80
07FF00
03FE00
01FE00
00FC00
01FC00
01FE00
03FE00
07FF00
0FDF80
0FCF80
1F8FC0
3F07E0
3F03F0
7E03F0
FC01F8
ENDCHAR

STARTCHAR y
ENCODING 121
SWIDTH 580 0
DWIDTH 22 0
BBX 22 28 0 -7
BITMAP
FC00FC
7C00F8
7E01F8
3E01F0
3E01F0
1F03E0
1F03E0
1F87C0
0F87C0
0F8F80
07CF80
07DF80
07EF00
03FF00
03FE00
01FE00
01FC00
01FC00
00F800
00F800
01F000
01F000
03F000
03E000
07E000
07C000
0FC000
0F8000
ENDCHAR

STARTCHAR z
ENCODING 122
SWIDTH 460 0
DWIDTH 17 0
BBX 17 21 0 0
BITMAP
3FFF80
3FFF00
3FFF00
3FFE00
007E00
007C00
00FC00
00F800
01F800
01F000
03E000
03E000
07C000
0FC000
0F8000
1F8000
1F0000
3FFF80
3FFF80
7FFF80
FFFF80
ENDCHAR

STARTCHAR braceleft
ENCODING 123
SWIDTH 340 0
DWIDTH 13 0
BBX 13 35 0 -7
BITMAP
01F8
03F8
07F8
07F8
07C0
0F80
0F80
0F80
0F80
0F80
0F80
0F80
0F80
0F80
1F00
FF00
FE00
FC00
FE00
FF00
1F00
0F80
0F80
0F80
0F80
0F80
0F80
0F80
0F80
0F80
07C0
07F8
07F8
03F8
01F8
ENDCHAR

STARTCHAR bar
ENCODING 124
SWIDTH 600 0
DWIDTH 23 0
BBX 3 35 10 -7
BITMAP
E0
E0
E0
E0
E0
E0
E0
E0
E0
E0
E0
E0
E0
E0
E0
E0
E0
E0
E0
E0
E0
E0
E0
E0
E0
E0
E0
E0
E0
E0
E0
E0
E0
E0
E0
ENDCHAR

STARTCHAR braceright
ENCODING 125
SWIDTH 340 0
DWIDTH 13 0
BBX 13 35 0 -7
BITMAP
FC00
FE00
FF00
FF00
1F80
0F80
0F80
0F80
0F80
0F80
0F80
0F80
0F80
0F80
07C0
07F8
03F8
01F8
03F8
07F8
07C0
0F80
0F80
0F80
0F80
0F80
0F80
0F80
0F80
0F80
1F00
FF00
FF00
FE00
FC00
ENDCHAR

STARTCHAR asciitilde
ENCODING 126
SWIDTH 600 0
DWIDTH 23 0
BBX 19 8 2 10
BITMAP
7F0000
FFC020
FFF8E0
FFFFE0
FFFFE0
E3FFE0
807FE0
001F80
ENDCHAR

STARTCHAR space
ENCODING 160
SWIDTH 280 0
DWIDTH 13 0
BBX 0 0 0 0
BITMAP
ENDCHAR

STARTCHAR exclamdown
ENCODING 161
SWIDTH 280 0
DWIDTH 11 0
BBX 6 28 2 -7
BITMAP
78
FC
FC
FC
FC
78
00
00
7C
7C
7C
7C
7C
7C
7C
7C
7C
7C
7C
7C
7C
7C
7C
7C
7C
7C
7C
7C
ENDCHAR

STARTCHAR cent
ENCODING 162
SWIDTH 560 0
DWIDTH 21 0
BBX 18 29 2 -4
BITMAP
000200
000780
000700
000F00
00FE00
07FE00
1FFF00
3FFF80
3FFFC0
7E3F00
7C7200
FC7000
F8F000
F8E000
F9E000
F9C000
FBC000
FD8000
7F8000
7F0600
3FFF00
1FFF80
1FFF00
1FFE00
1DF000
3C0000
380000
780000
080000
ENDCHAR

STARTCHAR sterling
ENCODING 163
SWIDTH 560 0
DWIDTH 21 0
BBX 20 28 1 0
BITMAP
01F000
07FE00
0FFF00
1FFF80
3FFF80
3F1F80
3E0FC0
3E0FC0
3E0000
3F0000
1F0000
FFFE00
FFFE00
FFFE00
FFFE00
FFFE00
07C000
07C000
07C000
07C000
0FC000
0F81F0
1F83E0
FFFFE0
7FFFE0
7FFFC0
7FFF80
207E00
ENDCHAR

STARTCHAR currency
ENCODING 164
SWIDTH 600 0
DWIDTH 23 0
BBX 19 19 2 4
BITMAP
21F080
77FDC0
FFFFE0
7FFFC0
3E0780
7803C0
7803C0
F001E0
F001E0
F001E0
F001E0
F001E0
7803C0
7803C0
3E0F80
7FFFC0
FFFFE0
77FDC0
21F080
ENDCHAR

STARTCHAR yen
ENCODING 165
SWIDTH 560 0
DWIDTH 21 0
BBX 19 28 1 0
BITMAP
F803E0
FC07E0
7C07C0
7E0FC0
3E0F80
3F1F80
1F1F00
1F9F00
0FBF00
0FBE00
0FFE00
07FC00
03FC00
7FFFC0
7FFFC0
7FFFC0
01F000
01F000
01F000
7FFFC0
7FFFC0
7FFFC0
01F000
01F000
01F000
01F000
01F000
01F000
ENDCHAR

STARTCHAR brokenbar
ENCODING 166
SWIDTH 600 0
DWIDTH 23 0
BBX 3 35 10 -7
BITMAP
E0
E0
E0
E0
E0
E0
E0
E0
E0
E0
E0
E0
00
00
00
00
00
00
00
00
00
00
00
E0
E0
E0
E0
E0
E0
E0
E0
E0
E0
E0
E0
ENDCHAR

STARTCHAR section
ENCODING 167
SWIDTH 560 0
DWIDTH 21 0
BBX 17 37 2 -7
BITMAP
03C000
0FF800
1FFC00
3FFE00
7FFE00
7C3F00
7C1F00
7E0000
7F0000
3F8000
3FC000
0FF000
3FF800
7FFC00
79FE00
F8FF00
F03F00
F01F80
F80F80
FC0F80
FE0F80
7F9F00
3FFF00
1FFE00
0FF800
03FC00
01FE00
007E00
003F00
001F00
7C1F00
7E3F00
3FFF00
3FFE00
1FFE00
0FF800
03E000
ENDCHAR

STARTCHAR dieresis
ENCODING 168
SWIDTH 500 0
DWIDTH 19 0
BBX 13 5 3 24
BITMAP
7070
F8F8
F8F8
F8F8
7070
ENDCHAR

STARTCHAR copyright
ENCODING 169
SWIDTH 740 0
DWIDTH 28 0
BBX 28 28 0 0
BITMAP
001FC000
00FFF000
03FFFC00
07C03E00
0F000F00
1E078380
3C3FE3C0
387FF1E0
70F078E0
70E038E0
E1E03870
E1C00070
E1C00070
E1C00070
E1C00070
E1C00070
E1E03870
70E038E0
70F878E0
787FF1E0
383FE1C0
1C0783C0
1F000780
0F801F00
07E07E00
03FFFC00
00FFF000
001F8000
ENDCHAR

STARTCHAR ordfeminine
ENCODING 170
SWIDTH 360 0
DWIDTH 14 0
BBX 12 13 1 15
BITMAP
1EF0
3FF0
7FF0
79F0
F0F0
F0F0
F0F0
F0F0
F0F0
79F0
7FF0
3FF0
1EF0
ENDCHAR

STARTCHAR guillemotleft
ENCODING 171
SWIDTH 460 0
DWIDTH 17 0
BBX 17 21 0 0
BITMAP
0F8F80
1F0F80
1F1F00
1E1F00
3E1F00
3E3E00
3E3E00
7C3E00
7C3C00
7C7C00
F87C00
7C7C00
7C3C00
7C3E00
3E3E00
3E1E00
3E1F00
1F1F00
1F1F00
1F0F80
0F8F80
ENDCHAR

STARTCHAR logicalnot
ENCODING 172
SWIDTH 600 0
DWIDTH 23 0
BBX 19 13 2 7
BITMAP
FFFFE0
FFFFE0
FFFFE0
FFFFE0
FFFFE0
0003E0
0003E0
0003E0
0003E0
0003E0
0003E0
0003E0
0003E0
ENDCHAR

STARTCHAR hyphen
ENCODING 173
SWIDTH 420 0
DWIDTH 16 0
BBX 10 5 3 8
BITMAP
FFC0
FFC0
FFC0
FFC0
FFC0
ENDCHAR

STARTCHAR registered
ENCODING 174
SWIDTH 740 0
DWIDTH 28 0
BBX 28 27 0 1
BITMAP
003F8000
00FFF000
03FFFC00
07C03E00
0F000F00
1C000780
38FFC3C0
78FFE1E0
70FFF0E0
70E070E0
E0E07070
E0E07070
E0FFE070
E0FFC070
E0FFF070
E0E0F070
E0E0F0F0
70E0F0E0
70E070E0
38E071C0
3CE07BC0
1E000780
0F001F00
07E07E00
03FFFC00
00FFF000
003F8000
ENDCHAR

STARTCHAR macron
ENCODING 175
SWIDTH 420 0
DWIDTH 16 0
BBX 10 4 3 24
BITMAP
FFC0
FFC0
FFC0
FFC0
ENDCHAR

STARTCHAR degree
ENCODING 176
SWIDTH 400 0
DWIDTH 15 0
BBX 13 13 1 15
BITMAP
0F80
3FE0
78F0
6030
E038
C018
C018
C018
E038
6030
78F0
3FE0
0F80
ENDCHAR

STARTCHAR plusminus
ENCODING 177
SWIDTH 600 0
DWIDTH 23 0
BBX 19 27 2 0
BITMAP
01F000
01F000
01F000
01F000
01F000
01F000
01F000
FFFFE0
FFFFE0
FFFFE0
FFFFE0
FFFFE0
01F000
01F000
01F000
01F000
01F000
01F000
01F000
000000
000000
000000
FFFFE0
FFFFE0
FFFFE0
FFFFE0
FFFFE0
ENDCHAR

STARTCHAR twosuperior
ENCODING 178
SWIDTH 336 0
DWIDTH 13 0
BBX 11 14 1 14
BITMAP
1F80
3FC0
7FE0
F1E0
F0E0
01E0
01E0
03C0
0F80
1F00
3C00
7FE0
FFE0
FFE0
ENDCHAR

STARTCHAR threesuperior
ENCODING 179
SWIDTH 336 0
DWIDTH 13 0
BBX 12 15 0 13
BITMAP
0F80
3FC0
3FE0
78E0
00E0
03E0
0780
07E0
03F0
00F0
F0F0
F0F0
7FE0
3FC0
1F00
ENDCHAR

STARTCHAR acute
ENCODING 180
SWIDTH 420 0
DWIDTH 16 0
BBX 11 7 4 24
BITMAP
0FE0
0F80
1F00
1E00
3E00
7C00
F800
ENDCHAR

STARTCHAR mu
ENCODING 181
SWIDTH 576 0
DWIDTH 22 0
BBX 18 28 2 -7
BITMAP
F807C0
F807C0
F807C0
F807C0
F807C0
F807C0
F807C0
F807C0
F807C0
F807C0
F807C0
F807C0
F807C0
F807C0
FC0FC0
FC0FC0
FF3FC0
FFFFC0
FBFBC0
FBF7C0
F9E7C0
F80000
F80000
F80000
F80000
F80000
F80000
F80000
ENDCHAR

STARTCHAR paragraph
ENCODING 182
SWIDTH 600 0
DWIDTH 23 0
BBX 16 35 3 -7
BITMAP
0FFF
3FFF
7FCE
7FCE
FFCE
FFCE
FFCE
FFCE
FFCE
FFCE
7FCE
7FCE
3FCE
1FCE
07CE
01CE
01CE
01CE
01CE
01CE
01CE
01CE
01CE
01CE
01CE
01CE
01CE
01CE
01CE
01CE
01CE
01CE
01CE
01CE
01CE
ENDCHAR

STARTCHAR periodcentered
ENCODING 183
SWIDTH 280 0
DWIDTH 11 0
BBX 6 6 2 11
BITMAP
78
7C
FC
FC
7C
38
ENDCHAR

STARTCHAR cedilla
ENCODING 184
SWIDTH 340 0
DWIDTH 13 0
BBX 9 7 2 -7
BITMAP
1C00
1F00
0780
0780
FF80
FF00
7C00
ENDCHAR

STARTCHAR onesuperior
ENCODING 185
SWIDTH 336 0
DWIDTH 13 0
BBX 7 14 1 14
BITMAP
3E
7E
FE
0E
0E
0E
0E
0E
0E
0E
0E
0E
0E
0E
ENDCHAR

STARTCHAR ordmasculine
ENCODING 186
SWIDTH 360 0
DWIDTH 14 0
BBX 12 13 1 15
BITMAP
1F80
3FC0
7FE0
79E0
F0F0
F0F0
F0F0
F0F0
F0F0
79E0
7FE0
3FC0
1F80
ENDCHAR

STARTCHAR guillemotright
ENCODING 187
SWIDTH 460 0
DWIDTH 17 0
BBX 17 21 0 0
BITMAP
F87C00
7C7C00
7C3C00
3C3E00
3E3E00
3E1E00
1E1F00
1F1F00
1F0F00
0F0F80
0F8F80
0F0F80
1F0F00
1F1F00
1E1F00
3E1E00
3E3E00
3C3E00
7C3C00
7C7C00
F87C00
ENDCHAR

STARTCHAR onequarter
ENCODING 188
SWIDTH 840 0
DWIDTH 32 0
BBX 30 29 2 -1
BITMAP
3E003C00
7E003800
FE007800
0E007000
0E007000
0E00E000
0E00E000
0E01E000
0E01C000
0E01C000
0E038000
0E038000
0E078000
0E0700F0
000700F0
000E01F0
000E03F0
001E07B0
001C0F70
001C0E70
00381C70
00383C70
00783FFC
00703FFC
00703FFC
00E00070
00E00070
01E00070
01C00000
ENDCHAR

STARTCHAR onehalf
ENCODING 189
SWIDTH 840 0
DWIDTH 32 0
BBX 29 29 2 -1
BITMAP
3E003800
7E007000
FE007000
0E00F000
0E00E000
0E00E000
0E01C000
0E01C000
0E03C000
0E038000
0E038000
0E070000
0E070000
0E0F07C0
000E0FF0
000E1FF8
001C1C78
001C3C38
003C0038
00380078
003800F0
007001F0
007003E0
00F007C0
00E00F00
00E01FF8
01C03FF8
01C03FF8
03C00000
ENDCHAR

STARTCHAR threequarters
ENCODING 190
SWIDTH 840 0
DWIDTH 32 0
BBX 31 29 0 -1
BITMAP
0F800F00
3FC00E00
3FE00E00
78E01C00
00E01C00
03E03C00
07803800
07E03800
03F07000
00F07000
F0F0F000
F0F0E000
7FE0E000
3FC1C000
1F01C078
0003C0F8
000381F8
000381F8
000703B8
00070738
000F0F38
000E1C38
001E1FFE
001C1FFE
001C1FFE
00380038
00380038
00780038
00700000
ENDCHAR

STARTCHAR questiondown
ENCODING 191
SWIDTH 560 0
DWIDTH 21 0
BBX 17 29 2 -7
BITMAP
01E000
03F000
03F000
03F000
03F000
01E000
000000
000000
01F000
01F000
03F000
03E000
03E000
07E000
0FC000
1FC000
3F8000
7F0000
7E0000
FC0000
F80000
F80F80
F80F80
FC1F80
7FFF80
7FFF00
3FFE00
0FFC00
03E000
ENDCHAR

STARTCHAR Agrave
ENCODING 192
SWIDTH 740 0
DWIDTH 28 0
BBX 26 37 1 0
BITMAP
03F80000
00F80000
007C0000
003E0000
001E0000
000F0000
00078000
00000000
00000000
003F0000
003F0000
003F8000
007F8000
007F8000
00FFC000
00FFC000
00FBE000
01FBE000
01F3E000
03F3F000
03F1F000
03E1F000
07E1F800
07C0F800
07C0FC00
0FC07C00
0FFFFC00
1FFFFE00
1FFFFE00
1FFFFE00
3FFFFF00
3E001F00
3E001F80
7E000F80
7C000F80
FC000FC0
F80007C0
ENDCHAR

STARTCHAR Aacute
ENCODING 193
SWIDTH 740 0
DWIDTH 28 0
BBX 26 37 1 0
BITMAP
0007F000
0007C000
000F8000
000F0000
001E0000
003E0000
003C0000
00000000
00000000
003F0000
003F0000
003F8000
007F8000
007F8000
00FFC000
00FFC000
00FBE000
01FBE000
01F3E000
03F3F000
03F1F000
03E1F000
07E1F800
07C0F800
07C0FC00
0FC07C00
0FFFFC00
1FFFFE00
1FFFFE00
1FFFFE00
3FFFFF00
3E001F00
3E001F80
7E000F80
7C000F80
FC000FC0
F80007C0
ENDCHAR

STARTCHAR Acircumflex
ENCODING 194
SWIDTH 740 0
DWIDTH 28 0
BBX 26 35 1 0
BITMAP
003F0000
007F8000
00FBC000
01F3E000
07E1F800
00000000
00000000
003F0000
003F0000
003F8000
007F8000
007F8000
00FFC000
00FFC000
00FBE000
01FBE000
01F3E000
03F3F000
03F1F000
03E1F000
07E1F800
07C0F800
07C0FC00
0FC07C00
0FFFFC00
1FFFFE00
1FFFFE00
1FFFFE00
3FFFFF00
3E001F00
3E001F80
7E000F80
7C000F80
FC000FC0
F80007C0
ENDCHAR

STARTCHAR Atilde
ENCODING 195
SWIDTH 740 0
DWIDTH 28 0
BBX 26 35 1 0
BITMAP
00F82000
07FFF000
03FFF800
03FFF000
0103E000
00000000
00000000
003F0000
003F0000
003F8000
007F8000
007F8000
00FFC000
00FFC000
00FBE000
01FBE000
01F3E000
03F3F000
03F1F000
03E1F000
07E1F800
07C0F800
07C0FC00
0FC07C00
0FFFFC00
1FFFFE00
1FFFFE00
1FFFFE00
3FFFFF00
3E001F00
3E001F80
7E000F80
7C000F80
FC000FC0
F80007C0
ENDCHAR

STARTCHAR Adieresis
ENCODING 196
SWIDTH 740 0
DWIDTH 28 0
BBX 27 35 1 0
BITMAP
00E0E000
01F1F000
01F1F000
01F1F000
00E0E000
00000000
00000000
001F0000
003F8000
003F8000
003F8000
007FC000
007FC000
007FE000
00FDE000
00FBE000
01FBF000
01F1F000
01F1F000
03F1F800
03E0F800
07E0FC00
07E07C00
07C07C00
0FFFFE00
0FFFFE00
0FFFFE00
1FFFFF00
1FFFFF00
3F001F80
3F000F80
3E000F80
7E000FC0
7C0007C0
FC0007E0
ENDCHAR

STARTCHAR Aring
ENCODING 197
SWIDTH 740 0
DWIDTH 28 0
BBX 27 39 1 0
BITMAP
000E0000
003F8000
003F8000
0071C000
0071C000
0071C000
003F8000
003F8000
000E0000
00000000
00000000
001F8000
003F8000
003F8000
007FC000
007FC000
007FC000
00FFE000
00FDE000
01FBF000
01FBF000
01F1F000
03F1F800
03F0F800
03E0F800
07E0FC00
07C07C00
0FC07E00
0FFFFE00
0FFFFE00
1FFFFF00
1FFFFF00
1FFFFF00
3F001F80
3E000F80
7E000FC0
7E0007C0
7C0007C0
FC0007E0
ENDCHAR

STARTCHAR AE
ENCODING 198
SWIDTH 900 0
DWIDTH 34 0
BBX 31 28 2 0
BITMAP
000FFFFE
000FFFFE
000FFFFE
001FFFFE
001FFFFE
003EF800
003EF800
007CF800
007CF800
00FCF800
00F8FFFE
01F8FFFE
01F0FFFE
03F0FFFE
03E0FFFE
07E0F800
07C0F800
0FFFF800
0FFFF800
0FFFF800
1FFFF800
1FFFF800
3E00F800
3E00FFFE
7C00FFFE
7C00FFFE
FC00FFFE
F800FFFE
ENDCHAR

STARTCHAR Ccedilla
ENCODING 199
SWIDTH 780 0
DWIDTH 30 0
BBX 26 34 2 -6
BITMAP
003FC000
00FFF800
03FFFE00
07FFFF00
0FFFFF80
1FE03FC0
3F800F80
7F000700
7E000200
7C000000
FC000000
F8000000
F8000000
F8000000
F8000000
F8000000
F8000000
FC000000
7C000000
7E000200
3F000700
3F800F80
1FE03FC0
0FFFFF80
07FFFF00
03FFFE00
00FFF800
001E8000
001F0000
00078000
00078000
00FF8000
00FF0000
007C0000
ENDCHAR

STARTCHAR Egrave
ENCODING 200
SWIDTH 520 0
DWIDTH 20 0
BBX 15 38 3 0
BITMAP
FE00
7E00
3F00
1F00
0F80
07C0
03C0
01E0
0000
0000
FFFE
FFFE
FFFE
FFFE
FFFE
F800
F800
F800
F800
F800
FFFE
FFFE
FFFE
FFFE
FFFE
F800
F800
F800
F800
F800
F800
F800
F800
FFFE
FFFE
FFFE
FFFE
FFFE
ENDCHAR

STARTCHAR Eacute
ENCODING 201
SWIDTH 520 0
DWIDTH 20 0
BBX 15 38 3 0
BITMAP
00FC
00F8
01F0
03E0
03E0
07C0
0780
0F00
0000
0000
FFFE
FFFE
FFFE
FFFE
FFFE
F800
F800
F800
F800
F800
FFFE
FFFE
FFFE
FFFE
FFFE
F800
F800
F800
F800
F800
F800
F800
F800
FFFE
FFFE
FFFE
FFFE
FFFE
ENDCHAR

STARTCHAR Ecircumflex
ENCODING 202
SWIDTH 520 0
DWIDTH 20 0
BBX 15 36 3 0
BITMAP
0780
0FE0
1FF0
3EF8
7CFC
FC7E
0000
0000
FFFE
FFFE
FFFE
FFFE
FFFE
F800
F800
F800
F800
F800
FFFE
FFFE
FFFE
FFFE
FFFE
F800
F800
F800
F800
F800
F800
F800
F800
FFFE
FFFE
FFFE
FFFE
FFFE
ENDCHAR

STARTCHAR Edieresis
ENCODING 203
SWIDTH 520 0
DWIDTH 20 0
BBX 15 35 3 0
BITMAP
3838
7C7C
7C7C
7C7C
3838
0000
0000
FFFE
FFFE
FFFE
FFFE
FFFE
F800
F800
F800
F800
F800
FFFE
FFFE
FFFE
FFFE
FFFE
F800
F800
F800
F800
F800
F800
F800
F800
FFFE
FFFE
FFFE
FFFE
FFFE
ENDCHAR

STARTCHAR Igrave
ENCODING 204
SWIDTH 280 0
DWIDTH 11 0
BBX 10 37 -1 0
BITMAP
FC00
7E00
3E00
1F00
0F80
0780
03C0
0000
0000
0F80
0F80
0F80
0F80
0F80
0F80
0F80
0F80
0F80
0F80
0F80
0F80
0F80
0F80
0F80
0F80
0F80
0F80
0F80
0F80
0F80
0F80
0F80
0F80
0F80
0F80
0F80
0F80
ENDCHAR

STARTCHAR Iacute
ENCODING 205
SWIDTH 280 0
DWIDTH 11 0
BBX 10 37 2 0
BITMAP
0FC0
1F80
1F00
3E00
7C00
7800
F000
0000
0000
7C00
7C00
7C00
7C00
7C00
7C00
7C00
7C00
7C00
7C00
7C00
7C00
7C00
7C00
7C00
7C00
7C00
7C00
7C00
7C00
7C00
7C00
7C00
7C00
7C00
7C00
7C00
7C00
ENDCHAR

STARTCHAR Icircumflex
ENCODING 206
SWIDTH 280 0
DWIDTH 11 0
BBX 15 35 -2 0
BITMAP
07C0
0FF0
3F78
7EFC
FC7E
0000
0000
07C0
07C0
07C0
07C0
07C0
07C0
07C0
07C0
07C0
07C0
07C0
07C0
07C0
07C0
07C0
07C0
07C0
07C0
07C0
07C0
07C0
07C0
07C0
07C0
07C0
07C0
07C0
07C0
ENDCHAR

STARTCHAR Idieresis
ENCODING 207
SWIDTH 280 0
DWIDTH 11 0
BBX 13 35 -1 0
BITMAP
7070
F8F8
F8F8
F8F8
7070
0000
0000
0F80
0F80
0F80
0F80
0F80
0F80
0F80
0F80
0F80
0F80
0F80
0F80
0F80
0F80
0F80
0F80
0F80
0F80
0F80
0F80
0F80
0F80
0F80
0F80
0F80
0F80
0F80
0F80
ENDCHAR

STARTCHAR Gbreve
ENCODING 208
SWIDTH 840 0
DWIDTH 32 0
BBX 28 34 2 0
BITMAP
01E0F800
01FFF800
00FFF000
007FE000
000F0000
00000000
003FC000
00FFF800
03FFFE00
07FFFF00
0FFFFFC0
1FE03FC0
3F800F80
3F000700
7E000200
7C000000
FC000000
FC000000
F8000000
F8000000
F803FFF0
F803FFF0
F803FFF0
FC03FFF0
7C03FFF0
7E0003E0
7F0007E0
3F800FC0
1FE03FC0
0FFFFF80
07FFFF00
03FFFE00
00FFF800
001FC000
ENDCHAR

STARTCHAR Ntilde
ENCODING 209
SWIDTH 740 0
DWIDTH 28 0
BBX 22 35 3 0
BITMAP
03E080
1FFFC0
0FFFE0
0FFFC0
040F80
000000
000000
F8007C
FC007C
FE007C
FE007C
FF007C
FF807C
FF807C
FFC07C
FFC07C
FFE07C
FBF07C
FBF07C
F9F87C
F8FC7C
F8FC7C
F87E7C
F83F7C
F83F7C
F81FFC
F80FFC
F80FFC
F807FC
F803FC
F803FC
F801FC
F800FC
F800FC
F8007C
ENDCHAR

STARTCHAR Ograve
ENCODING 210
SWIDTH 840 0
DWIDTH 32 0
BBX 28 37 2 0
BITMAP
01F80000
00FC0000
007E0000
003E0000
001F0000
000F0000
0007C000
00000000
00000000
003FC000
00FFF000
03FFFC00
07FFFE00
0FFFFF00
1FE07F80
3F801FC0
7F000FE0
7E0007E0
7C0003E0
FC0003F0
F80001F0
F80001F0
F80001F0
F80001F0
F80001F0
F80001F0
FC0003F0
7C0003E0
7E0007E0
3F000FE0
3F801FC0
1FE07F80
0FFFFF00
07FFFE00
03FFFC00
00FFF800
001FC000
ENDCHAR

STARTCHAR Oacute
ENCODING 211
SWIDTH 840 0
DWIDTH 32 0
BBX 28 37 2 0
BITMAP
0001F800
0003F000
0007E000
0007C000
000F8000
000F0000
001E0000
00000000
00000000
003FC000
00FFF000
03FFFC00
07FFFE00
0FFFFF00
1FE07F80
3F801FC0
7F000FE0
7E0007E0
7C0003E0
FC0003F0
F80001F0
F80001F0
F80001F0
F80001F0
F80001F0
F80001F0
FC0003F0
7C0003E0
7E0007E0
3F000FE0
3F801FC0
1FE07F80
0FFFFF00
07FFFE00
03FFFC00
00FFF800
001FC000
ENDCHAR

STARTCHAR Ocircumflex
ENCODING 212
SWIDTH 840 0
DWIDTH 32 0
BBX 28 35 2 0
BITMAP
000F0000
001F8000
003FC000
007DE000
03F9FC00
00000000
00000000
003FC000
00FFF000
03FFFC00
07FFFE00
0FFFFF00
1FE07F80
3F801FC0
7F000FE0
7E0007E0
7C0003E0
FC0003F0
F80001F0
F80001F0
F80001F0
F80001F0
F80001F0
F80001F0
FC0003F0
7C0003E0
7E0007E0
3F000FE0
3F801FC0
1FE07F80
0FFFFF00
07FFFE00
03FFFC00
00FFF800
001FC000
ENDCHAR

STARTCHAR Otilde
ENCODING 213
SWIDTH 840 0
DWIDTH 32 0
BBX 28 35 2 0
BITMAP
007C1000
03FFF800
01FFFC00
01FFF800
0083F000
00000000
00000000
003FC000
00FFF000
03FFFC00
07FFFE00
0FFFFF00
1FE07F80
3F801FC0
7F000FE0
7E0007E0
7C0003E0
FC0003F0
F80001F0
F80001F0
F80001F0
F80001F0
F80001F0
F80001F0
FC0003F0
7C0003E0
7E0007E0
3F000FE0
3F801FC0
1FE07F80
0FFFFF00
07FFFE00
03FFFC00
00FFF800
001FC000
ENDCHAR

STARTCHAR Odieresis
ENCODING 214
SWIDTH 840 0
DWIDTH 32 0
BBX 28 35 2 0
BITMAP
00E0E000
01F1F000
01F1F000
01F1F000
00E0F000
00000000
00000000
003FC000
01FFF000
03FFFC00
0FFFFE00
1FFFFF00
1FC07F80
3F801FC0
7E000FC0
7E0007E0
FC0003E0
FC0003F0
F80003F0
F80001F0
F80001F0
F80001F0
F80001F0
F80003F0
FC0003F0
7C0007E0
7E0007E0
7F000FC0
3F801FC0
1FE07F80
0FFFFF00
07FFFE00
03FFFC00
00FFF000
003F8000
ENDCHAR

STARTCHAR multiply
ENCODING 215
SWIDTH 600 0
DWIDTH 23 0
BBX 17 17 3 5
BITMAP
200600
700F00
F81F80
7C3F00
3E7E00
1F7C00
0FF800
03F000
07E000
0FF000
1FF800
3F7C00
7E3E00
FC1F00
F80F80
700700
200200
ENDCHAR

STARTCHAR Oslash
ENCODING 216
SWIDTH 840 0
DWIDTH 32 0
BBX 28 30 2 -1
BITMAP
00000040
003FC0F0
00FFF1E0
03FFFDC0
07FFFF80
0FFFFF00
1FE07F80
3F801FC0
7F003FE0
7E007FE0
7C00F3E0
FC01E3F0
F803C1F0
F803C1F0
F80781F0
F80F01F0
F81E01F0
F83C01F0
FC7803F0
7CF003E0
7EF007E0
3FE00FE0
3FC01FC0
1FE07F80
0FFFFF00
1FFFFE00
3FFFFC00
3CFFF800
781FC000
30000000
ENDCHAR

STARTCHAR Ugrave
ENCODING 217
SWIDTH 640 0
DWIDTH 24 0
BBX 18 37 3 0
BITMAP
3F8000
0F8000
07C000
03C000
01E000
00F000
00F000
000000
000000
F807C0
F807C0
F807C0
F807C0
F807C0
F807C0
F807C0
F807C0
F807C0
F807C0
F807C0
F807C0
F807C0
F807C0
F807C0
F807C0
F807C0
F807C0
F807C0
F807C0
F807C0
FC0FC0
7E1FC0
7FFF80
3FFF00
1FFE00
0FFC00
03F000
ENDCHAR

STARTCHAR Uacute
ENCODING 218
SWIDTH 640 0
DWIDTH 24 0
BBX 18 37 3 0
BITMAP
007F00
007C00
00F800
00F000
01E000
03C000
03C000
000000
000000
F807C0
F807C0
F807C0
F807C0
F807C0
F807C0
F807C0
F807C0
F807C0
F807C0
F807C0
F807C0
F807C0
F807C0
F807C0
F807C0
F807C0
F807C0
F807C0
F807C0
F807C0
FC0FC0
7E1FC0
7FFF80
3FFF00
1FFE00
0FFC00
03F000
ENDCHAR

STARTCHAR Ucircumflex
ENCODING 219
SWIDTH 640 0
DWIDTH 24 0
BBX 18 35 3 0
BITMAP
03F000
07F800
0FBC00
1F3E00
3E1F80
000000
000000
F807C0
F807C0
F807C0
F807C0
F807C0
F807C0
F807C0
F807C0
F807C0
F807C0
F807C0
F807C0
F807C0
F807C0
F807C0
F807C0
F807C0
F807C0
F807C0
F807C0
F807C0
FC0FC0
7E1FC0
7FFF80
3FFF00
1FFE00
0FFC00
03F000
ENDCHAR

STARTCHAR Udieresis
ENCODING 220
SWIDTH 640 0
DWIDTH 24 0
BBX 19 35 3 0
BITMAP
0E0E00
1F1F00
1F1F00
1F1F00
0E0E00
000000
000000
F803E0
F803E0
F803E0
F803E0
F803E0
F803E0
F803E0
F803E0
F803E0
F803E0
F803E0
F803E0
F803E0
F803E0
F803E0
F803E0
F803E0
F803E0
F803E0
F803E0
FC07E0
FC07E0
7E0FE0
7FFFC0
3FFF80
1FFF00
0FFE00
03F800
ENDCHAR

STARTCHAR Idotaccent
ENCODING 221
SWIDTH 280 0
DWIDTH 11 0
BBX 5 35 3 0
BITMAP
70
F8
F8
F8
70
00
00
F8
F8
F8
F8
F8
F8
F8
F8
F8
F8
F8
F8
F8
F8
F8
F8
F8
F8
F8
F8
F8
F8
F8
F8
F8
F8
F8
F8
ENDCHAR

STARTCHAR Scedilla
ENCODING 222
SWIDTH 520 0
DWIDTH 20 0
BBX 17 34 1 -6
BITMAP
07F000
0FFC00
1FFE00
3FFF80
7FFF00
7E3E00
7C0C00
7C0400
7E0000
3F0000
3FC000
1FE000
0FF000
07F800
03FC00
01FE00
007F00
003F00
001F80
000F80
380F80
780F80
FE1F80
FFFF00
7FFF00
3FFE00
1FFC00
03C000
01F000
007800
007800
0FF800
0FF000
07C000
ENDCHAR

STARTCHAR germandbls
ENCODING 223
SWIDTH 600 0
DWIDTH 23 0
BBX 18 29 3 0
BITMAP
03F000
0FFC00
1FFE00
3FFF00
7FFF80
7E1F80
7C0F80
FC0F80
F80F80
F81F80
F83F00
F8FE00
F8EC00
F8F000
F8FE00
F87F00
F81F80
F80F80
F807C0
F807C0
F807C0
F807C0
F80FC0
F81FC0
F9FF80
F9FF80
F9FF00
F9FE00
F8F800
ENDCHAR

STARTCHAR agrave
ENCODING 224
SWIDTH 660 0
DWIDTH 25 0
BBX 21 31 2 0
BITMAP
0FC000
07E000
03E000
01F000
00F800
007800
003C00
000000
000000
000000
01F0F8
07FCF8
1FFF78
3FFFF8
3FFFF8
7F07F8
7C01F8
FC01F8
F800F8
F800F8
F800F8
F800F8
F800F8
FC01F8
7E01F8
7F07F8
3FFFF8
1FFFF8
0FFF78
07FCF8
01F0F8
ENDCHAR

STARTCHAR aacute
ENCODING 225
SWIDTH 660 0
DWIDTH 25 0
BBX 21 31 2 0
BITMAP
001F80
003F00
003E00
007C00
00F800
00F000
01E000
000000
000000
000000
01F0F8
07FCF8
1FFF78
3FFFF8
3FFFF8
7F07F8
7C01F8
FC01F8
F800F8
F800F8
F800F8
F800F8
F800F8
FC01F8
7E01F8
7F07F8
3FFFF8
1FFFF8
0FFF78
07FCF8
01F0F8
ENDCHAR

STARTCHAR acircumflex
ENCODING 226
SWIDTH 660 0
DWIDTH 25 0
BBX 21 29 2 0
BITMAP
00F800
01FC00
07FE00
0FDF00
1F8FC0
000000
000000
000000
01F0F8
07FCF8
1FFF78
3FFFF8
3FFFF8
7F07F8
7C01F8
FC01F8
F800F8
F800F8
F800F8
F800F8
F800F8
FC01F8
7E01F8
7F07F8
3FFFF8
1FFFF8
0FFF78
07FCF8
01F0F8
ENDCHAR

STARTCHAR atilde
ENCODING 227
SWIDTH 660 0
DWIDTH 25 0
BBX 21 29 2 0
BITMAP
07C180
1FFF80
1FFFC0
0FFFC0
0C1F00
000000
000000
000000
01F0F8
07FCF8
1FFF78
3FFFF8
3FFFF8
7F07F8
7C01F8
FC01F8
F800F8
F800F8
F800F8
F800F8
F800F8
FC01F8
7E01F8
7F07F8
3FFFF8
1FFFF8
0FFF78
07FCF8
01F0F8
ENDCHAR

STARTCHAR adieresis
ENCODING 228
SWIDTH 660 0
DWIDTH 25 0
BBX 21 29 2 0
BITMAP
070700
0F8F80
0F8F80
0F8F80
070700
000000
000000
000000
01F0F8
07FCF8
1FFEF8
3FFFF8
3FFFF8
7F07F8
7C01F8
FC01F8
F800F8
F800F8
F800F8
F800F8
F800F8
FC01F8
7E01F8
7F07F8
3FFFF8
1FFFF8
0FFEF8
07FCF8
01F0F8
ENDCHAR

STARTCHAR aring
ENCODING 229
SWIDTH 660 0
DWIDTH 25 0
BBX 21 33 2 0
BITMAP
007000
01FC00
01FC00
038E00
038E00
038E00
01FC00
01FC00
007000
000000
000000
000000
01F0F8
07FCF8
1FFF78
3FFFF8
3FFFF8
7F03F8
7C01F8
FC00F8
F800F8
F800F8
F800F8
F800F8
F800F8
FC01F8
7E01F8
7F07F8
3FFFF8
1FFFF8
0FFF78
07FCF8
01F0F8
ENDCHAR

STARTCHAR ae
ENCODING 230
SWIDTH 1080 0
DWIDTH 41 0
BBX 38 21 2 0
BITMAP
00F87CFF00
07FE7DFF80
0FFF7FFFE0
1FFFFFFFF0
3FFFFFC3F0
7F03FF01F8
7E00FE00F8
FC00FC007C
F8007FFFFC
F8007FFFFC
F8007FFFFC
F8007FFFFC
FC007C0000
FC00FE0000
7E01FE0000
7F03FF01C0
3FFFFFC7F8
1FFFFFFFF0
0FFF7FFFE0
07FE7DFFC0
00F87CFF00
ENDCHAR

STARTCHAR ccedilla
ENCODING 231
SWIDTH 640 0
DWIDTH 24 0
BBX 21 27 1 -6
BITMAP
00FE00
03FFC0
0FFFE0
1FFFF0
3FFFF8
7F01F0
7E00C0
FC0000
F80000
F80000
F80000
F80000
F80000
FC0000
7E00C0
7F01E0
3FFFF8
1FFFF0
0FFFE0
03FF80
007400
00FC00
001E00
001E00
03FE00
03FC00
01F000
ENDCHAR

STARTCHAR egrave
ENCODING 232
SWIDTH 640 0
DWIDTH 24 0
BBX 21 32 2 0
BITMAP
0FC000
07C000
03E000
01F000
00F000
00F800
007800
003C00
000000
000000
000000
01FC00
07FF00
1FFFC0
3FFFE0
3F07E0
7E03F0
7C01F0
F800F8
FFFFF8
FFFFF8
FFFFF8
FFFFF8
F80000
F80000
7C0000
7E0380
3F8FF0
3FFFE0
1FFFC0
07FF80
03FE00
ENDCHAR

STARTCHAR eacute
ENCODING 233
SWIDTH 640 0
DWIDTH 24 0
BBX 21 32 2 0
BITMAP
001F80
001F00
003E00
003C00
007C00
00F800
00F000
01E000
000000
000000
000000
01FC00
07FF00
1FFFC0
3FFFE0
3F07E0
7E03F0
7C01F0
F800F8
FFFFF8
FFFFF8
FFFFF8
FFFFF8
F80000
F80000
7C0000
7E0380
3F8FF0
3FFFE0
1FFFC0
07FF80
03FE00
ENDCHAR

STARTCHAR ecircumflex
ENCODING 234
SWIDTH 640 0
DWIDTH 24 0
BBX 21 30 2 0
BITMAP
00F800
01FC00
03FE00
07DF00
0FCF80
1F8FC0
000000
000000
000000
01FC00
07FF00
1FFFC0
3FFFE0
3F07E0
7E03F0
7C01F0
F800F8
FFFFF8
FFFFF8
FFFFF8
FFFFF8
F80000
F80000
7C0000
7E0380
3F8FF0
3FFFE0
1FFFC0
07FF80
03FE00
ENDCHAR

STARTCHAR edieresis
ENCODING 235
SWIDTH 640 0
DWIDTH 24 0
BBX 21 29 2 0
BITMAP
070700
0F8F80
0F8F80
0F8F80
070700
000000
000000
000000
01FC00
07FF00
1FFFC0
3FFFE0
3F07E0
7E03F0
7C01F0
F800F8
FFFFF8
FFFFF8
FFFFF8
FFFFF8
F80000
F80000
7C0000
7E0380
3F8FF0
3FFFE0
1FFFC0
07FF80
03FE00
ENDCHAR

STARTCHAR igrave
ENCODING 236
SWIDTH 240 0
DWIDTH 9 0
BBX 10 32 -2 0
BITMAP
FC00
7E00
3E00
1F00
0F00
0780
03C0
0000
0000
0000
0000
0F80
0F80
0F80
0F80
0F80
0F80
0F80
0F80
0F80
0F80
0F80
0F80
0F80
0F80
0F80
0F80
0F80
0F80
0F80
0F80
0F80
ENDCHAR

STARTCHAR iacute
ENCODING 237
SWIDTH 240 0
DWIDTH 9 0
BBX 10 32 1 0
BITMAP
0FC0
0F80
1F00
3E00
3C00
7800
F000
0000
0000
0000
0000
7C00
7C00
7C00
7C00
7C00
7C00
7C00
7C00
7C00
7C00
7C00
7C00
7C00
7C00
7C00
7C00
7C00
7C00
7C00
7C00
7C00
ENDCHAR

STARTCHAR icircumflex
ENCODING 238
SWIDTH 240 0
DWIDTH 9 0
BBX 15 30 -3 0
BITMAP
07C0
0FE0
1FF0
3EF8
FC7E
0000
0000
0000
0000
07C0
07C0
07C0
07C0
07C0
07C0
07C0
07C0
07C0
07C0
07C0
07C0
07C0
07C0
07C0
07C0
07C0
07C0
07C0
07C0
07C0
ENDCHAR

STARTCHAR idieresis
ENCODING 239
SWIDTH 240 0
DWIDTH 9 0
BBX 13 30 -2 0
BITMAP
7070
F8F8
F8F8
F8F8
7070
0000
0000
0000
0000
0F80
0F80
0F80
0F80
0F80
0F80
0F80
0F80
0F80
0F80
0F80
0F80
0F80
0F80
0F80
0F80
0F80
0F80
0F80
0F80
0F80
ENDCHAR

STARTCHAR gbreve
ENCODING 240
SWIDTH 660 0
DWIDTH 25 0
BBX 21 36 2 -7
BITMAP
1F07C0
0FFF80
0FFF80
07FF00
01F800
000000
000000
000000
01F0F8
07FCF8
1FFEF8
3FFFF8
3FFFF8
7F07F8
7E01F8
FC01F8
F800F8
F800F8
F800F8
F800F8
F800F8
FC01F8
7E01F8
7F07F8
3FFFF8
1FFFF8
0FFF78
07FCF8
0060F8
0001F8
FC03F0
7FFFF0
3FFFE0
1FFFC0
0FFF80
01FC00
ENDCHAR

STARTCHAR ntilde
ENCODING 241
SWIDTH 600 0
DWIDTH 23 0
BBX 18 29 3 0
BITMAP
0F8200
7FFF00
3FFF80
3FFF00
103E00
000000
000000
000000
F87800
F9FE00
FBFF80
FFFF80
FFFFC0
FE0FC0
FC0FC0
FC07C0
F807C0
F807C0
F807C0
F807C0
F807C0
F807C0
F807C0
F807C0
F807C0
F807C0
F807C0
F807C0
F807C0
ENDCHAR

STARTCHAR ograve
ENCODING 242
SWIDTH 640 0
DWIDTH 24 0
BBX 21 31 2 0
BITMAP
0FC000
07E000
03E000
01F000
00F800
007800
003C00
000000
000000
000000
00F800
07FF00
0FFF80
1FFFC0
3FFFE0
7F07F0
7E01F0
FC01F8
F800F8
F800F8
F800F8
F800F8
F800F8
FC01F8
7E03F0
7F07F0
3FFFE0
1FFFC0
0FFF80
07FF00
00F800
ENDCHAR

STARTCHAR oacute
ENCODING 243
SWIDTH 640 0
DWIDTH 24 0
BBX 21 31 2 0
BITMAP
001F80
003F00
003E00
007C00
00F800
00F000
01E000
000000
000000
000000
00F800
07FF00
0FFF80
1FFFC0
3FFFE0
7F07F0
7E01F0
FC01F8
F800F8
F800F8
F800F8
F800F8
F800F8
FC01F8
7E03F0
7F07F0
3FFFE0
1FFFC0
0FFF80
07FF00
00F800
ENDCHAR

STARTCHAR ocircumflex
ENCODING 244
SWIDTH 640 0
DWIDTH 24 0
BBX 21 29 2 0
BITMAP
00F800
01FC00
03EF00
0FDF80
1F8FC0
000000
000000
000000
00F800
07FF00
0FFF80
1FFFC0
3FFFE0
7F07F0
7E01F0
FC01F8
F800F8
F800F8
F800F8
F800F8
F800F8
FC01F8
7E03F0
7F07F0
3FFFE0
1FFFC0
0FFF80
07FF00
00F800
ENDCHAR

STARTCHAR otilde
ENCODING 245
SWIDTH 640 0
DWIDTH 24 0
BBX 21 29 2 0
BITMAP
07C180
1FFF80
1FFFC0
0FFFC0
041F00
000000
000000
000000
00F800
07FF00
0FFF80
1FFFC0
3FFFE0
7F07F0
7E01F0
FC01F8
F800F8
F800F8
F800F8
F800F8
F800F8
FC01F8
7E03F0
7F07F0
3FFFE0
1FFFC0
0FFF80
07FF00
00F800
ENDCHAR

STARTCHAR odieresis
ENCODING 246
SWIDTH 640 0
DWIDTH 24 0
BBX 21 29 2 0
BITMAP
070700
0F8F80
0F8F80
0F8F80
070700
000000
000000
000000
00F800
07FF00
0FFF80
1FFFC0
3FFFE0
7F07F0
7E01F0
FC01F8
F800F8
F800F8
F800F8
F800F8
F800F8
FC01F8
7E03F0
7F07F0
3FFFE0
1FFFC0
0FFF80
07FF00
00F800
ENDCHAR

STARTCHAR divide
ENCODING 247
SWIDTH 600 0
DWIDTH 23 0
BBX 18 22 2 3
BITMAP
03F000
03F000
03F000
03F000
03F000
03F000
000000
000000
000000
FFFFC0
FFFFC0
FFFFC0
FFFFC0
FFFFC0
000000
000000
03F000
03F000
03F000
03F000
03F000
03F000
ENDCHAR

STARTCHAR oslash
ENCODING 248
SWIDTH 660 0
DWIDTH 25 0
BBX 21 23 2 -1
BITMAP
000010
01F830
07FF78
0FFFF0
1FFFE0
3FFFE0
7F07F0
7E0FF0
FC1FF8
F81EF8
F83CF8
F878F8
F8F0F8
F9E0F8
FDC1F8
7F83F0
7F07F0
1FFFE0
3FFFC0
7FFF80
FBFF00
70F800
200000
ENDCHAR

STARTCHAR ugrave
ENCODING 249
SWIDTH 600 0
DWIDTH 23 0
BBX 18 32 2 0
BITMAP
3F0000
1F8000
0FC000
07C000
03E000
01E000
00F800
000000
000000
000000
000000
F807C0
F807C0
F807C0
F807C0
F807C0
F807C0
F807C0
F807C0
F807C0
F807C0
F807C0
F807C0
F807C0
FC07C0
FC0FC0
7E1F80
7FFF80
3FFF00
1FFE00
0FFC00
03F000
ENDCHAR

STARTCHAR uacute
ENCODING 250
SWIDTH 600 0
DWIDTH 23 0
BBX 18 32 2 0
BITMAP
003F00
007E00
00FC00
00F800
01F000
03E000
07C000
000000
000000
000000
000000
F807C0
F807C0
F807C0
F807C0
F807C0
F807C0
F807C0
F807C0
F807C0
F807C0
F807C0
F807C0
F807C0
FC07C0
FC0FC0
7E1F80
7FFF80
3FFF00
1FFE00
0FFC00
03F000
ENDCHAR

STARTCHAR ucircumflex
ENCODING 251
SWIDTH 600 0
DWIDTH 23 0
BBX 18 30 2 0
BITMAP
03F000
07F800
0FFC00
1FBE00
7F3F80
000000
000000
000000
000000
F807C0
F807C0
F807C0
F807C0
F807C0
F807C0
F807C0
F807C0
F807C0
F807C0
F807C0
F807C0
F807C0
FC07C0
FC0FC0
7E1F80
7FFF80
3FFF00
1FFE00
0FFC00
03F000
ENDCHAR

STARTCHAR udieresis
ENCODING 252
SWIDTH 600 0
DWIDTH 23 0
BBX 17 30 3 0
BITMAP
1C1C00
3E3E00
3E3E00
3E3E00
1C1C00
000000
000000
000000
000000
F80F80
F80F80
F80F80
F80F80
F80F80
F80F80
F80F80
F80F80
F80F80
F80F80
F80F80
F80F80
F80F80
F80F80
FC1F80
7E1F00
7FFF00
3FFE00
3FFE00
0FF800
03E000
ENDCHAR

STARTCHAR dotlessi
ENCODING 253
SWIDTH 240 0
DWIDTH 9 0
BBX 5 21 2 0
BITMAP
F8
F8
F8
F8
F8
F8
F8
F8
F8
F8
F8
F8
F8
F8
F8
F8
F8
F8
F8
F8
F8
ENDCHAR

STARTCHAR scedilla
ENCODING 254
SWIDTH 440 0
DWIDTH 17 0
BBX 15 27 0 -6
BITMAP
07C0
1FF0
3FFC
3FFE
7FF8
7C30
7C10
7F00
3FC0
1FF0
0FF8
03FC
00FE
007E
103E
383E
FFFE
7FFC
3FF8
1FF0
0380
03E0
00F0
00F0
1FF0
1FE0
0F80
ENDCHAR

STARTCHAR ydieresis
ENCODING 255
SWIDTH 580 0
DWIDTH 22 0
BBX 21 37 1 -7
BITMAP
070700
0F8F80
0F8F80
0F8F80
070700
000000
000000
000000
000000
F800F8
FC01F8
7C01F0
7C03F0
3E03E0
3E07E0
3F07C0
1F07C0
1F0F80
0F8F80
0F9F00
07DF00
07DF00
07FE00
03FE00
03FC00
01FC00
01F800
00F800
01F000
01F000
03E000
03E000
07E000
07C000
07C000
0F8000
1F8000
ENDCHAR
ENDFONT
